<?xml version="1.0" encoding="UTF-8"?>
<svg id="Layer_1" data-name="Layer 1" xmlns="http://www.w3.org/2000/svg" version="1.1" viewBox="0 0 300 80">
  <g>
    <path d="M-.6,7.2h11.3v7.3c.1,0,.1,3.6.1,3.6.2-4.2,3.6-12,15-12s21,11.3,21,26.5-11.5,28.1-21.9,28.1-14-6.4-14.8-10l.6,9.5v19.5H-.6V7.2ZM10.8,21.8v25.4c.6,2.5,3.8,4.9,10.4,4.9s13.8-5.2,13.8-18.4-6.3-17.7-13.1-17.7-10.5,3.7-11.1,5.8Z" fill="#fff" stroke-width="0"/>
    <path d="M52.8,41.4c0-2.2.9-4.1,2.6-4.7h-10.4v-9.9h7.9v-6.3c0-12.4,8.3-18.5,18.3-18.5s5.3.2,6.9.4v10.8c-1.5-.5-3.4-1-6.4-1-5.1,0-7.5,2-7.5,9.6v4.9h12v9.9h-12v43.1h-11.3v-38.4Z" fill="#fff" stroke-width="0"/>
    <path d="M83.6,41.4c0-2.2.9-4.1,2.6-4.7h-10.4v-9.9h7.9v-6.3c0-12.4,8.3-18.5,18.3-18.5s5.3.2,6.9.4v10.8c-1.5-.5-3.4-1-6.4-1-5.1,0-7.5,2-7.5,9.6v4.9h12v9.9h-12v43.1h-11.3v-38.4Z" fill="#fff" stroke-width="0"/>
  </g>
  <rect x="6.8" y="26.8" width="41.2" height="9.9" fill="#fff" stroke-width="0"/>
  <line x1="129.7" y1="2" x2="129.7" y2="79.8" fill="#fff" stroke="#fff" stroke-miterlimit="10"/>
  <g>
    <path d="M152.3,1.2h8.4c6.5,0,9.7,2.8,9.7,9.5s-2.3,10.1-9.6,10.1h-2.6c-.7,0-1.5-.5-1.7-1.3v11.5h-4.3V1.2ZM156.6,5.6v10.8h4.6c3.2,0,4.8-1.8,4.8-5.6s-1.9-5.2-5.1-5.2h-4.4Z" fill="#fff" stroke-width="0"/>
    <path d="M172.6,19.6c0-7.1,3.9-11.5,9.2-11.5s9.1,4.4,9.1,11.5-4,11.6-9.2,11.6-9.1-4.1-9.1-11.6ZM186.5,19.6c0-4.9-1.8-7.4-4.8-7.4s-4.7,2.4-4.7,7.4,2,7.5,4.8,7.5,4.8-2.2,4.8-7.5Z" fill="#fff" stroke-width="0"/>
    <path d="M194.9,23.5v-14.9h4.3v13.6c0,3.3.9,4.7,3.2,4.7s3.4-1.4,4-2.9v-15.5h4.3v22.3h-3.7l-.3-5.7c-.6,3.2-2.2,6.1-6.1,6.1s-5.7-2.8-5.7-7.8Z" fill="#fff" stroke-width="0"/>
    <path d="M216.1,8.6h3.7l.3,5.7c.6-3.1,2.1-6.2,5.5-6.2s1,0,1.4.2v5.1c-.8-.3-1.8-.4-2.6-.4-1.4,0-3.4,1-4,2.8v15h-4.3V8.6Z" fill="#fff" stroke-width="0"/>
    <path d="M230.9,35.2h1.6c2.6,0,3.3-.8,3.6-2.3.3-1.2.6-1.7,1-2h-1.4l-6.5-22.3h4.8l2.3,10.2,1.8,7.4h.2l1.7-7.4,2.3-10.2h4.7l-6.4,22.3c-1.6,5.4-3.3,8.8-8.1,8.8h-1.6v-4.5Z" fill="#fff" stroke-width="0"/>
    <path d="M248.7,25c0-3.9,2-5.7,5.3-6.5,2.3-.6,5.4-.8,6.6-.9v-.9c0-3-1-4.5-3.6-4.5s-3.8.8-3.8,4.3h-3.9c-.4-5.8,2.8-8.4,8-8.4s7.5,1.7,7.5,8.1v14.6h-4.2v-5c-.4,3-2.3,5.2-5.7,5.2s-6.2-2.5-6.2-6.1ZM260.6,24.4v-4.1c-1,.1-2.5.4-3.4.7-2.7.6-3.8,1.5-3.8,3.6s1.3,2.9,2.7,2.9,4.2-1.2,4.6-3.1Z" fill="#fff" stroke-width="0"/>
    <path d="M152.3,50.2h15.2v4.5h-11v8.4h9.8v4.4h-9.8v12.5h-4.3v-29.7Z" fill="#fff" stroke-width="0"/>
    <path d="M169.2,74c0-3.9,2-5.7,5.3-6.5,2.3-.6,5.4-.8,6.6-.9v-.9c0-3-1-4.5-3.6-4.5s-3.8.8-3.8,4.3h-3.9c-.4-5.8,2.8-8.4,8-8.4s7.5,1.7,7.5,8.1v14.6h-4.2v-5c-.4,3-2.3,5.2-5.7,5.2s-6.2-2.5-6.2-6.1ZM181.2,73.4v-4.1c-1,.1-2.5.4-3.4.7-2.7.6-3.8,1.5-3.8,3.6s1.3,2.9,2.7,2.9,4.2-1.2,4.6-3.1Z" fill="#fff" stroke-width="0"/>
    <path d="M190.6,57.6h3.7l.3,5.7c.6-3.1,2.1-6.2,5.5-6.2s1,0,1.4.2v5.1c-.8-.3-1.8-.4-2.6-.4-1.4,0-3.4,1-4,2.8v15h-4.3v-22.3Z" fill="#fff" stroke-width="0"/>
    <path d="M203.4,74c0-3.9,2-5.7,5.3-6.5,2.3-.6,5.4-.8,6.6-.9v-.9c0-3-1-4.5-3.6-4.5s-3.8.8-3.8,4.3h-3.9c-.4-5.8,2.8-8.4,8-8.4s7.5,1.7,7.5,8.1v14.6h-4.2v-5c-.4,3-2.3,5.2-5.7,5.2s-6.2-2.5-6.2-6.1ZM215.4,73.4v-4.1c-1,.1-2.5.4-3.4.7-2.7.6-3.8,1.5-3.8,3.6s1.3,2.9,2.7,2.9,4.2-1.2,4.6-3.1Z" fill="#fff" stroke-width="0"/>
    <path d="M224.9,48.1h4.3v14.5c.2-3.1,1.9-5.4,5.6-5.4s7.4,4.7,7.4,11.2-3.8,11.8-7.7,11.8-4.8-1.9-5.3-3.4l-.2,3.2h-4.1v-31.8ZM229.1,63.6v10.9c.3,1,1.5,1.9,3.9,1.9s4.7-2.2,4.7-7.7-1.9-7.5-4.4-7.5-3.9,1.5-4.2,2.4Z" fill="#fff" stroke-width="0"/>
    <path d="M245.7,51c0-1.9,1.3-3.2,2.8-3.2s2.8,1.3,2.8,3.2-1.3,3.3-2.8,3.3-2.8-1.3-2.8-3.3ZM246.3,57.6h4.4v22.3h-4.4v-22.3Z" fill="#fff" stroke-width="0"/>
    <path d="M257.1,63.7c0-.9.3-1.7,1-2h-3.9v-4.2h3v-2.7c0-5.2,3.1-7.8,6.9-7.8s2,.1,2.6.2v4.6c-.5-.2-1.3-.4-2.4-.4-1.9,0-2.8.9-2.8,4v2h4.5v4.2h-4.5v18.1h-4.2v-16.2Z" fill="#fff" stroke-width="0"/>
    <path d="M267.6,74c0-3.9,2-5.7,5.3-6.5,2.3-.6,5.4-.8,6.6-.9v-.9c0-3-1-4.5-3.6-4.5s-3.8.8-3.8,4.3h-3.9c-.4-5.8,2.8-8.4,8-8.4s7.5,1.7,7.5,8.1v14.6h-4.2v-5c-.4,3-2.3,5.2-5.7,5.2s-6.2-2.5-6.2-6.1ZM279.6,73.4v-4.1c-1,.1-2.5.4-3.4.7-2.7.6-3.8,1.5-3.8,3.6s1.3,2.9,2.7,2.9,4.2-1.2,4.6-3.1Z" fill="#fff" stroke-width="0"/>
    <path d="M289,57.6h3.7l.3,5.7c.6-3.1,2.1-6.2,5.5-6.2s1,0,1.4.2v5.1c-.8-.3-1.8-.4-2.6-.4-1.4,0-3.4,1-4,2.8v15h-4.3v-22.3Z" fill="#fff" stroke-width="0"/>
  </g>
</svg>